<svg width="20" height="23" viewBox="0 0 20 23" fill="none" xmlns="http://www.w3.org/2000/svg">
<g clip-path="url(#clip0_6610_12)">
<path d="M9.99997 0.844727C4.57139 0.844727 0.142822 5.71616 0.142822 11.6876C0.142822 17.659 4.57139 22.5304 9.99997 22.5304C15.4285 22.5304 19.8571 17.659 19.8571 11.6876C19.8571 5.71616 15.4285 0.844727 9.99997 0.844727ZM9.99997 2.5733C12.1428 2.5733 14 3.51616 15.4285 4.7733C15.2857 5.08758 15 5.24473 14.7143 5.71616C14 6.50187 12.8571 7.44473 11.1428 8.0733C9.99997 5.71616 8.85711 3.98758 8.14282 2.88758C8.71425 2.73044 9.42854 2.5733 9.99997 2.5733ZM6.57139 3.51616C7.14282 4.45901 8.42854 6.18758 9.57139 8.70187C6.28568 9.64473 3.14282 9.80187 1.99997 9.80187C2.42854 6.9733 4.14282 4.61615 6.57139 3.51616ZM16.5714 6.18758C17.5714 7.60187 18.1428 9.48758 18.2857 11.3733C17.5714 11.2162 16.4285 11.059 15 11.059C14.2857 11.059 13.4285 11.059 12.5714 11.2162C12.4285 10.7447 12.1428 10.2733 11.8571 9.64473C13.7143 8.85901 15 7.75901 15.8571 6.9733C16.1428 6.81615 16.4285 6.50187 16.5714 6.18758ZM10.2857 10.2733C10.4285 10.7447 10.7143 11.059 10.8571 11.5304C7.28568 12.6304 4.85711 15.9304 3.71425 17.5019C2.57139 16.0876 1.71425 13.8876 1.71425 11.6876C1.71425 11.6876 1.71425 11.6876 1.71425 11.5304C2.85711 11.5304 6.42854 11.5304 10.2857 10.2733ZM15 12.9447C16.4285 12.9447 17.4285 13.1019 18.1428 13.4162C17.7143 15.7733 16.5714 17.9733 14.7143 19.2304C14.4285 16.8733 13.8571 14.8304 13.2857 12.9447C13.8571 12.9447 14.4285 12.9447 15 12.9447ZM11.5714 13.259C12.2857 15.3019 13 17.659 13.2857 20.0162C12.2857 20.4876 11.1428 20.8019 9.99997 20.8019C8.14282 20.8019 6.42854 20.1733 4.99997 18.9162C5.85711 17.659 8.28568 14.2019 11.5714 13.259Z" fill="white"/>
</g>
<defs>
<clipPath id="clip0_6610_12">
<rect width="20" height="22" fill="white" transform="translate(0 0.6875)"/>
</clipPath>
</defs>
</svg>
