<svg width="24" height="17" viewBox="0 0 24 17" fill="none" xmlns="http://www.w3.org/2000/svg">
<g clip-path="url(#clip0_6610_38)">
<path d="M3.16675 3.29452C3.91193 4.01141 4.65689 4.72879 5.40168 5.44622L3.16675 3.29452ZM3.16675 3.29452V3.32166V3.34907V3.37648V3.40389V3.4313V3.45871V3.48612V3.51353V3.54094V3.56835V3.59576V3.62316V3.65057V3.67798V3.70539V3.7328V3.76021V3.78762V3.81503V3.84244V3.86985V3.89726V3.92467V3.95208V3.97949V4.0069V4.03431V4.06172V4.08913V4.11654V4.14394V4.17135V4.19876V4.22617V4.25358V4.28099V4.3084V4.33581V4.36322V4.39063V4.41804V4.44545V4.47286V4.50027V4.52767V4.55508V4.58249V4.6099V4.63731V4.66472V4.69213V4.71954V4.74695V4.77436V4.80177V4.82918V4.85659V4.88399V4.9114V4.93881V4.96622V4.99363V5.02104V5.04845V5.07586V5.10327V5.13068V5.15809V5.18549V5.2129V5.24031V5.26772V5.29513V5.32254V5.34995V5.37736V5.40477V5.43218V5.45958V5.48699V5.5144V5.54181V5.56922V5.59663V5.62404V5.65145V5.67886V5.70626V5.73367V5.76108V5.78849V5.8159V5.84331V5.87072V5.89813V5.92554V5.95294V5.98035V6.00776V6.03517V6.06258V6.08999V6.1174V6.14481V6.17221V6.19962V6.22703V6.25444V6.28185V6.30926V6.33667V6.36408V6.39148V6.41889V6.4463V6.47371V6.50112V6.52853V6.55594V6.58334V6.61075V6.63816V6.66557V6.69298V6.72039V6.7478V6.77521V6.80261V6.83002V6.85743V6.88484V6.91225V6.93966V6.96706V6.99447V7.02188V7.04929V7.0767V7.10411V7.13152V7.15892V7.18633V7.21374V7.24115V7.26856V7.29597V7.32338V7.35078V7.37819V7.4056V7.43301V7.46042V7.48783V7.51523V7.54264V7.57005V7.59746V7.62487V7.65228V7.67968V7.70709V7.7345V7.76191V7.78932V7.81673V7.84413V7.87154V7.89895V7.92636V7.95377V7.98118V8.00858V8.03599V8.0634V8.09081V8.11822V8.14563V8.17303V8.20044V8.22785V8.25526V8.28267V8.31007V8.33748V8.36489V8.3923V8.41971V8.44712V8.47452V8.50193V8.52934V8.55675V8.58416V8.61157V8.63897V8.66638V8.69379V8.7212V8.74861V8.77601V8.80342V8.83083V8.85824V8.88565V8.91305V8.94046V8.96787V8.99528V9.02269V9.05009V9.0775V9.10491V9.13232V9.15973V9.18713V9.21454V9.24195V9.26936V9.29677V9.32417V9.35158V9.37899V9.4064V9.43381V9.46122V9.48862V9.51603V9.54344V9.57085V9.59825V9.62566V9.65307V9.68048V9.70789V9.73529V9.7627V9.79011V9.81752V9.84493V9.87233V9.89974V9.92715V9.95456V9.98197V10.0094V10.0368V10.0642V10.0916V10.119V10.1464V10.1738V10.2012V10.2286V10.256V10.2835V10.3109V10.3383V10.3657V10.3931V10.4205V10.4479V10.4753V10.5027V10.5301V10.5575V10.5849V10.6123V10.6398V10.6672V10.6946V10.722V10.7494V10.7768V10.8042V10.8316V10.859V10.8864V10.9138V10.9412V10.9686V10.9961V11.0235V11.0509V11.0783V11.1057V11.1331V11.1605V11.1879V11.2153V11.2427V11.2701V11.2975V11.3249V11.3524V11.3798V11.4072V11.4346V11.462V11.4894V11.5168V11.5442V11.5716V11.599V11.6264V11.6538V11.6812V11.7087V11.7361V11.7635V11.7909V11.8183V11.8457V11.8731V11.9005V11.9279V11.9553V11.9827V12.0101V12.0375V12.065V12.0924V12.1198V12.1472V12.1746V12.202V12.2294V12.2568V12.2842V12.3116V12.339V12.3664V12.3938V12.4213V12.4487V12.4761V12.5035V12.5309V12.5583V12.5857V12.6131V12.6405V12.6679V12.6953V12.7227V12.7501V12.7775V12.805V12.8324V12.8598V12.8872V12.9146V12.942V12.9694V12.9968V13.0242V13.0516V13.079V13.1064V13.1338V13.1613V13.1887V13.2161V13.2435V13.2709V13.2983V13.3257V13.3531V13.3805V13.4079V13.4353V13.4627V13.4901V13.5175V13.545V13.5724V13.5998V13.6272V13.6546V13.682V13.7094V13.7368V13.7642V13.7916V13.819V13.8464V13.8738V13.9013V13.9287V13.9561V13.9835V14.0109V14.0383V14.0657V14.0931V14.1205V14.1479V14.1753V14.2027V14.2301V14.2575V14.285V14.3124V14.3398V14.3672V14.3946V14.422V14.4494V14.4768V14.5042V14.5316V14.559V14.5864V14.6138V14.6413V14.6687V14.6961V14.7235V14.7509V14.7783V14.8057V14.8331V14.8605V14.8879V14.9153V14.9427V14.9701V14.9975V15.025V15.0524V15.0798V15.1072V15.1346V15.162V15.1894V15.2168V15.2442V15.2716V15.299V15.3264V15.3538V15.3813V15.4087V15.4361V15.4635V15.4909V15.5183V15.5457V15.5731V15.6005V15.6279V15.6553V15.6827V15.7101V15.7375V15.765V15.7924V15.8065C8.34928 15.808 13.5318 15.808 18.7144 15.8079C19.717 15.8079 20.7197 15.8079 21.7223 15.8079V15.7923V15.7649V15.7375V15.7101V15.6827V15.6553V15.6279V15.6004V15.573V15.5456V15.5182V15.4908V15.4634V15.436V15.4086V15.3812V15.3538V15.3264V15.2989V15.2715V15.2441V15.2167V15.1893V15.1619V15.1345V15.1071V15.0797V15.0523V15.0248V14.9974V14.97V14.9426V14.9152V14.8878V14.8604V14.833V14.8056V14.7782V14.7507V14.7233V14.6959V14.6685V14.6411V14.6137V14.5863V14.5589V14.5315V14.5041V14.4767V14.4492V14.4218V14.3944V14.367V14.3396V14.3122V14.2848V14.2574V14.23V14.2026V14.1752V14.1477V14.1203V14.0929V14.0655V14.0381V14.0107V13.9833V13.9559V13.9285V13.9011V13.8736V13.8462V13.8188V13.7914V13.764V13.7366V13.7092V13.6818V13.6544V13.627V13.5996V13.5721V13.5447V13.5173V13.4899V13.4625V13.4351V13.4077V13.3803V13.3529V13.3255V13.2981V13.2706V13.2432V13.2158V13.1884V13.161V13.1336V13.1062V13.0788V13.0514V13.024V12.9966V12.9691V12.9417V12.9143V12.8869V12.8595V12.8321V12.8047V12.7773V12.7499V12.7225V12.6951V12.6677V12.6402V12.6128V12.5854V12.558V12.5306V12.5032V12.4758V12.4484V12.421V12.3936V12.3662V12.3387V12.3113V12.2839V12.2565V12.2291V12.2017V12.1743V12.1469V12.1195V12.0921V12.0647V12.0372V12.0098V11.9824V11.955V11.9276V11.9002V11.8728V11.8454V11.818V11.7906V11.7632V11.7358V11.7083V11.6809V11.6535V11.6261V11.5987V11.5713V11.5439V11.5165V11.4891V11.4617V11.4343V11.4069V11.3794V11.352V11.3246V11.2972V11.2698V11.2424V11.215V11.1876V11.1602V11.1328V11.1054V11.0779V11.0505V11.0231V10.9957V10.9683V10.9409V10.9135V10.8861V10.8587V10.8313V10.8039V10.7765V10.749V10.7216V10.6942V10.6668V10.6394V10.612V10.5846V10.5572V10.5298V10.5024V10.475V10.4476V10.4201V10.3927V10.3653V10.3379V10.3105V10.2831V10.2557V10.2283V10.2009V10.1735V10.1461V10.1187V10.0912V10.0638V10.0364V10.009V9.98162V9.95421V9.9268V9.89939V9.87198V9.84458V9.81717V9.78976V9.76235V9.73494V9.70754V9.68013V9.65272V9.62531V9.5979V9.5705V9.54309V9.51568V9.48827V9.46086V9.43345V9.40605V9.37864V9.35123V9.32382V9.29641V9.26901V9.2416V9.21419V9.18678V9.15937V9.13197V9.10456V9.07715V9.04974V9.02233V8.99493V8.96752V8.94011V8.9127V8.88529V8.85789V8.83048V8.80307V8.77566V8.74825V8.72085V8.69344V8.66603V8.63862V8.61122V8.58381V8.5564V8.52899V8.50158V8.47418V8.44677V8.41936V8.39195V8.36454V8.33714V8.30973V8.28232V8.25491V8.2275V8.2001V8.17269V8.14528V8.11787V8.09047V8.06306V8.03565V8.00824V7.98083V7.95343V7.92602V7.89861V7.8712V7.8438V7.81639V7.78898V7.76157V7.73416V7.70676V7.67935V7.65194V7.62453V7.59713V7.56972V7.54231V7.5149V7.48749V7.46009V7.43268V7.40527V7.37786V7.35046V7.32305V7.29564V7.26823V7.24083V7.21342V7.18601V7.1586V7.13119V7.10379V7.07638V7.04897V7.02156V6.99416V6.96675V6.93934V6.91193V6.88453V6.85712V6.82971V6.8023V6.7749V6.74749V6.72008V6.69267V6.66526V6.63786V6.61045V6.58304V6.55563V6.52823V6.50082V6.47341V6.446V6.4186V6.39119V6.36378V6.33637V6.30897V6.28156V6.25415V6.22674V6.19934V6.17193V6.14452V6.11711V6.08971V6.0623V6.03489V6.00748V5.98008V5.95267V5.92526V5.89785V5.87045V5.84304V5.81563V5.78822V5.76082V5.73341V5.706V5.67859V5.65119V5.62378V5.59637V5.56896V5.54156V5.51415V5.48674V5.45933V5.43193V5.40452V5.37711V5.3497V5.3223V5.29489V5.26748V5.24007V5.21267V5.18526V5.15785V5.13044V5.10304V5.07563V5.04822V5.02081V4.99341V4.966V4.93859V4.91118V4.88378V4.85637V4.82896V4.80155V4.77415V4.74674V4.71933V4.69192V4.66452V4.63711V4.6097V4.58229V4.55489V4.52748V4.50007V4.47267V4.44526V4.41785V4.39044V4.36304V4.33563V4.30822V4.28081V4.25341V4.226V4.19859V4.17118V4.14378V4.11637V4.08896V4.06155V4.03415V4.00674V3.97933V3.95192V3.92452V3.89711V3.8697V3.8423V3.81489V3.78748V3.76007V3.73267V3.70526V3.67785V3.65044V3.62304V3.59563V3.56822V3.54081V3.51341V3.486V3.45859V3.43118V3.40378V3.37637V3.34896V3.32156V3.29487C21.311 3.69086 20.9001 4.08692 20.489 4.48306C20.0105 4.94426 19.5318 5.40558 19.0524 5.86705L19.0523 5.86713C17.8696 7.00505 16.6883 8.1441 15.5069 9.28339C14.6569 10.1029 13.8069 10.9226 12.9561 11.7421L12.9555 11.7426C12.8738 11.8212 12.7 11.9713 12.4453 11.9716C12.1898 11.9719 12.0156 11.8214 11.9332 11.7419L11.9327 11.7415C11.0429 10.8814 10.1531 10.0217 9.26184 9.16496L9.26181 9.16493C8.37993 8.317 7.4988 7.4676 6.61798 6.6185C6.2125 6.22763 5.8071 5.83682 5.40172 5.44626L3.16675 3.29452Z" stroke="white"/>
<path d="M3.90116 0.8125H3.92978H3.96804H4.0063H4.04455H4.08281H4.12106H4.15931H4.19756H4.23582H4.27407H4.31231H4.35056H4.38881H4.42706H4.4653H4.50355H4.54179H4.58003H4.61827H4.65652H4.69476H4.733H4.77123H4.80947H4.84771H4.88595H4.92418H4.96241H5.00065H5.03888H5.07711H5.11534H5.15357H5.1918H5.23003H5.26826H5.30649H5.34471H5.38294H5.42116H5.45939H5.49761H5.53583H5.57406H5.61228H5.6505H5.68872H5.72694H5.76515H5.80337H5.84159H5.8798H5.91802H5.95623H5.99445H6.03266H6.07087H6.10908H6.14729H6.1855H6.22371H6.26192H6.30013H6.33834H6.37654H6.41475H6.45296H6.49116H6.52936H6.56757H6.60577H6.64397H6.68217H6.72038H6.75857H6.79677H6.83497H6.87317H6.91137H6.94957H6.98776H7.02596H7.06415H7.10235H7.14054H7.17874H7.21693H7.25512H7.29331H7.3315H7.36969H7.40788H7.44607H7.48426H7.52245H7.56064H7.59883H7.63701H7.6752H7.71338H7.75157H7.78975H7.82794H7.86612H7.9043H7.94249H7.98067H8.01885H8.05703H8.09521H8.13339H8.17157H8.20975H8.24793H8.28611H8.32428H8.36246H8.40064H8.43881H8.47699H8.51516H8.55334H8.59151H8.62969H8.66786H8.70603H8.7442H8.78238H8.82055H8.85872H8.89689H8.93506H8.97323H9.0114H9.04957H9.08774H9.12591H9.16408H9.20224H9.24041H9.27858H9.31675H9.35491H9.39308H9.43124H9.46941H9.50757H9.54574H9.5839H9.62207H9.66023H9.69839H9.73656H9.77472H9.81288H9.85104H9.8892H9.92737H9.96553H10.0037H10.0418H10.08H10.1182H10.1563H10.1945H10.2326H10.2708H10.309H10.3471H10.3853H10.4234H10.4616H10.4998H10.5379H10.5761H10.6142H10.6524H10.6905H10.7287H10.7668H10.805H10.8432H10.8813H10.9195H10.9576H10.9958H11.0339H11.0721H11.1102H11.1484H11.1865H11.2247H11.2629H11.301H11.3392H11.3773H11.4155H11.4536H11.4918H11.5299H11.5681H11.6062H11.6444H11.6825H11.7207H11.7588H11.797H11.8351H11.8733H11.9114H11.9496H11.9877H12.0259H12.064H12.1022H12.1403H12.1785H12.2166H12.2548H12.2929H12.3311H12.3693H12.4074H12.4456H12.4837H12.5219H12.56H12.5982H12.6363H12.6745H12.7126H12.7508H12.7889H12.8271H12.8652H12.9034H12.9415H12.9797H13.0178H13.056H13.0941H13.1323H13.1704H13.2086H13.2467H13.2849H13.323H13.3612H13.3993H13.4375H13.4756H13.5138H13.5519H13.5901H13.6282H13.6664H13.7045H13.7427H13.7808H13.819H13.8571H13.8953H13.9334H13.9716H14.0097H14.0479H14.086H14.1242H14.1623H14.2005H14.2387H14.2768H14.315H14.3531H14.3913H14.4294H14.4676H14.5057H14.5439H14.582H14.6202H14.6584H14.6965H14.7347H14.7728H14.811H14.8491H14.8873H14.9254H14.9636H15.0018H15.0399H15.0781H15.1162H15.1544H15.1925H15.2307H15.2689H15.307H15.3452H15.3833H15.4215H15.4597H15.4978H15.536H15.5741H15.6123H15.6505H15.6886H15.7268H15.765H15.8031H15.8413H15.8794H15.9176H15.9558H15.9939H16.0321H16.0703H16.1084H16.1466H16.1848H16.2229H16.2611H16.2993H16.3374H16.3756H16.4138H16.4519H16.4901H16.5283H16.5665H16.6046H16.6428H16.681H16.7191H16.7573H16.7955H16.8337H16.8718H16.91H16.9482H16.9864H17.0245H17.0627H17.1009H17.1391H17.1772H17.2154H17.2536H17.2918H17.33H17.3681H17.4063H17.4445H17.4827H17.5209H17.559H17.5972H17.6354H17.6736H17.7118H17.75H17.7881H17.8263H17.8645H17.9027H17.9409H17.9791H18.0173H18.0555H18.0936H18.1318H18.17H18.2082H18.2464H18.2846H18.3228H18.361H18.3992H18.4374H18.4756H18.5138H18.552H18.5902H18.6284H18.6666H18.7048H18.743H18.7812H18.8194H18.8576H18.8958H18.934H18.9722H19.0104H19.0486H19.0868H19.125H19.1632H19.2014H19.2396H19.2778H19.316H19.3542H19.3925H19.4307H19.4689H19.5071H19.5453H19.5835H19.6217H19.66H19.6982H19.7364H19.7746H19.8128H19.851H19.8893H19.9275H19.9657H20.0039H20.0422H20.0804H20.1186H20.1568H20.1951H20.2333H20.2715H20.3097H20.348H20.3862H20.4244H20.4627H20.5009H20.5391H20.5774H20.6156H20.6538H20.6921H20.7303H20.7686H20.8068H20.845H20.8833H20.9215H20.9598H20.99C20.3901 1.39309 19.7902 1.97365 19.1903 2.55423C16.9409 4.73122 14.6913 6.90829 12.4426 9.08689C9.81836 6.54005 7.1912 3.9971 4.56435 1.45443C4.34328 1.24045 4.12222 1.02648 3.90116 0.8125ZM12.6532 9.29124C12.6552 9.29292 12.6563 9.29391 12.6563 9.29398C12.6563 9.29405 12.6553 9.2932 12.6532 9.29124Z" stroke="white"/>
</g>
<defs>
<clipPath id="clip0_6610_38">
<rect width="24" height="16" fill="white" transform="translate(0 0.3125)"/>
</clipPath>
</defs>
</svg>
