<svg width="30" height="30" viewBox="0 0 30 30" fill="none" xmlns="http://www.w3.org/2000/svg">
<path d="M0 21.59V7.65C0 3.44 3.44 0 7.65 0H21.59C25.8 0 29.24 3.44 29.24 7.65V21.59C29.24 25.8 25.8 29.24 21.59 29.24H7.65C3.44 29.24 0 25.8 0 21.59Z" fill="url(#paint0_linear_6716_294)"/>
<path d="M4.04158 13.852H7.94158V15.628H4.04158V13.852ZM4.20958 17.164H8.60158V19H1.85758V10.6H8.44558V12.436H4.20958V17.164ZM9.92008 19V10.6H11.8761L16.5081 16.192H15.5841V10.6H17.9121V19H15.9561L11.3241 13.408H12.2481V19H9.92008ZM23.788 19.168C23.124 19.168 22.508 19.064 21.94 18.856C21.372 18.64 20.88 18.336 20.464 17.944C20.056 17.552 19.736 17.092 19.504 16.564C19.272 16.028 19.156 15.44 19.156 14.8C19.156 14.16 19.272 13.576 19.504 13.048C19.736 12.512 20.06 12.048 20.476 11.656C20.892 11.264 21.384 10.964 21.952 10.756C22.528 10.54 23.156 10.432 23.836 10.432C24.628 10.432 25.336 10.564 25.96 10.828C26.584 11.092 27.1 11.472 27.508 11.968L25.996 13.336C25.708 13.024 25.396 12.792 25.06 12.64C24.732 12.48 24.364 12.4 23.956 12.4C23.596 12.4 23.268 12.456 22.972 12.568C22.676 12.68 22.424 12.844 22.216 13.06C22.008 13.268 21.844 13.52 21.724 13.816C21.612 14.104 21.556 14.432 21.556 14.8C21.556 15.152 21.612 15.476 21.724 15.772C21.844 16.068 22.008 16.324 22.216 16.54C22.424 16.748 22.672 16.912 22.96 17.032C23.256 17.144 23.58 17.2 23.932 17.2C24.284 17.2 24.628 17.144 24.964 17.032C25.3 16.912 25.64 16.712 25.984 16.432L27.316 18.1C26.836 18.444 26.28 18.708 25.648 18.892C25.016 19.076 24.396 19.168 23.788 19.168ZM25.216 17.788V14.62H27.316V18.1L25.216 17.788Z" fill="white"/>
<defs>
<linearGradient id="paint0_linear_6716_294" x1="14.62" y1="0" x2="14.62" y2="29.24" gradientUnits="userSpaceOnUse">
<stop stop-color="white"/>
<stop offset="1" stop-color="white" stop-opacity="0"/>
</linearGradient>
</defs>
</svg>
