<svg width="196" height="213" viewBox="0 0 196 213" fill="none" xmlns="http://www.w3.org/2000/svg">
<path d="M20.46 0.0208011H0.636719V22.5692V190.933C1.25561 184.818 2.21208 177.6 3.6374 169.633C9.18867 138.931 22.0166 96.7459 51.6483 60.5312C81.6364 23.9005 123.665 9.29809 154.272 3.51539C164.587 1.58088 173.607 0.624033 180.415 0.166409C181.334 0.104005 182.197 0.0624033 183.041 0H20.46V0.0208011Z" fill="white"/>
<path d="M193.393 43.0999C188.78 74.26 177.04 116.653 147.652 150.808C119.82 184.651 84.3186 200.107 55.287 207.075C43.4343 209.904 32.6693 211.339 23.9486 212.026C21.8856 212.192 19.9539 212.296 18.1348 212.4H171.338H196V175.083V16.5161C195.681 23.6717 194.931 32.7618 193.393 43.0999Z" fill="white"/>
<path fill-rule="evenodd" clip-rule="evenodd" d="M103.035 64.3588C101.366 64.3796 99.7155 64.3796 98.8716 64.3588C98.0277 64.338 97.9901 64.2756 97.6151 63.8596C97.24 63.4436 96.5086 62.6531 96.096 62.0707C95.6834 61.4883 95.6084 61.093 95.5708 60.8018C95.5521 60.5106 95.6084 60.3026 95.8522 59.9698C96.096 59.6162 96.5461 59.1377 97.0524 58.4305C97.5588 57.7233 98.1402 56.808 98.4403 55.7888C98.7216 54.7903 98.7216 53.6878 98.4403 52.6894C98.1402 51.6909 97.5588 50.7965 96.9024 50.1101C96.246 49.4236 95.4958 48.9868 94.6519 48.6124C93.8079 48.238 92.8515 47.9467 91.8387 47.8635C90.826 47.7803 89.7758 47.8843 88.388 48.4668C87.0001 49.0492 85.2747 50.0893 82.9117 51.7533C80.5299 53.4174 77.4917 55.7056 74.3035 57.9105C71.1153 60.1154 67.777 62.2371 65.6765 63.4644C63.5761 64.6916 62.7321 65.0452 62.3008 65.2325C61.8694 65.4197 61.8694 65.4405 62.2633 65.6069C62.6571 65.7941 63.426 66.1061 64.3075 66.2933C65.1889 66.4805 66.1266 66.5221 67.1019 66.3973C68.0583 66.2725 69.0336 66.0021 70.2338 65.4197C71.4341 64.8372 72.8407 63.922 74.6786 62.6531C76.5165 61.3843 78.7858 59.7618 80.1923 58.6801C81.5989 57.5985 82.1615 57.0784 82.5179 56.7248C82.8554 56.392 82.9867 56.2256 83.1368 56.0384C83.2868 55.8512 83.4556 55.6016 83.6431 55.3935C83.8307 55.1855 83.9995 54.9775 84.0932 54.9359L84.187 55.0815C84.187 55.2063 84.2058 55.3519 84.2245 55.5807C84.2245 55.8096 84.2245 56.1008 84.2245 56.2672C84.2245 56.4336 84.2245 56.4752 83.7181 56.9744C83.2118 57.4736 82.199 58.4721 81.1301 59.4706C80.0611 60.469 78.9358 61.4883 77.623 62.5075C76.329 63.5268 74.8661 64.5252 73.4596 65.2117C72.0717 65.8981 70.7402 66.2725 69.915 66.5221C69.0898 66.7717 68.7522 66.9173 68.5834 66.9797C68.4147 67.0422 68.4147 67.0422 68.621 67.271C68.8273 67.479 69.2586 67.9158 69.8025 68.1654C70.3464 68.415 70.984 68.4982 71.7529 68.5398C72.5031 68.5814 73.347 68.6022 74.0785 68.4358C74.8099 68.2694 75.4288 67.9158 76.4978 67.2086C77.5667 66.5013 79.0858 65.4197 80.3986 64.4212C81.7114 63.4436 82.8367 62.5283 83.6056 61.8835C84.3933 61.2386 84.8246 60.8434 85.0685 60.6562C85.3123 60.469 85.3498 60.469 85.4623 60.6146L85.8749 61.2386C85.9687 61.4051 85.9687 61.4051 85.6311 61.7379C85.2935 62.0707 84.6184 62.7363 83.6244 63.5476C82.6304 64.3588 81.2988 65.3157 80.1736 66.1061C79.0483 66.8965 78.1106 67.4998 77.3417 67.9782C76.5728 68.4566 75.9726 68.8102 75.5788 69.0391C75.185 69.2679 75.0162 69.3927 74.9224 69.4551V69.6423C75.0162 69.7879 75.185 70.0583 75.5413 70.2039C75.8976 70.3495 76.4227 70.3911 76.9291 70.4535C77.4355 70.5159 77.9043 70.5991 78.4294 70.5159C78.9546 70.4327 79.5172 70.2039 80.1173 69.9335C80.7175 69.6631 81.3739 69.3719 82.3678 68.623C83.3618 67.8742 84.6746 66.6885 85.7249 65.7109C86.7751 64.754 87.5253 64.026 87.9003 63.6724C88.2754 63.3188 88.2754 63.3188 88.4067 63.402L88.9318 63.7556C89.0631 63.8596 89.0631 63.8804 88.538 64.4212C88.0129 64.962 86.9814 66.0229 86.1374 66.8133C85.2935 67.6246 84.6559 68.1654 83.9807 68.6646C83.2868 69.1431 82.5554 69.5799 82.0678 69.8711C81.5989 70.1623 81.3739 70.2871 81.2613 70.4743L81.0738 70.9112C81.0363 70.9528 80.9988 70.8488 81.2426 70.932C81.4676 71.0152 81.974 71.3064 82.5366 71.4728C83.118 71.6184 83.7557 71.6184 84.4121 71.5352C85.0497 71.452 85.6873 71.2648 86.3437 70.828C87.0001 70.3911 87.6753 69.6839 88.3317 68.9559C88.9881 68.2486 89.6257 67.5206 90.1509 66.8757C90.676 66.2309 91.0698 65.6693 91.3511 65.2741C91.6324 64.8788 91.7637 64.6708 91.8387 64.5668L92.0075 64.4628L92.4014 64.5876L92.4201 64.9412L92.1201 65.2949C92.045 65.4405 92.0263 65.6485 92.1013 66.1061C92.1763 66.5637 92.3264 67.2502 92.739 67.9782C93.1515 68.7062 93.8267 69.4759 94.6706 70.1415C95.5146 70.828 96.5086 71.4312 97.6713 71.7016C98.8341 71.972 100.128 71.8888 101.085 71.8264C102.022 71.764 102.604 71.7016 103.204 71.6392C103.129 69.2055 103.073 66.7717 103.035 64.3588Z" fill="white"/>
<path fill-rule="evenodd" clip-rule="evenodd" d="M104.836 56.35C106.786 56.35 108.362 54.6027 108.362 52.4394C108.362 50.2761 106.768 48.5288 104.836 48.5288C102.885 48.5288 101.31 50.2761 101.31 52.4394C101.31 54.5819 102.885 56.35 104.836 56.35Z" fill="white"/>
<path fill-rule="evenodd" clip-rule="evenodd" d="M96.827 77.3384C96.977 77.1304 97.127 76.9224 97.3333 76.7768C97.5396 76.6312 97.7834 76.548 98.0085 76.548C98.2335 76.548 98.4586 76.6312 98.5899 76.6936L98.7774 76.8184C98.7962 76.8392 98.7962 76.8392 98.4586 76.9224C98.1398 76.9848 97.4834 77.172 96.827 77.3384ZM101.797 77.0264C101.272 76.6104 100.765 76.1943 100.109 75.9239C99.4526 75.6535 98.6649 75.5287 97.8397 75.6119C97.0145 75.6951 96.1706 75.9447 95.3641 76.4024C94.5577 76.86 93.7888 77.5048 93.1511 78.1704C92.5135 78.8569 92.0071 79.5433 91.7258 80.4586C91.4445 81.3738 91.3507 82.4763 91.482 83.4955C91.6133 84.5148 91.9508 85.4092 92.4385 86.3037C92.9073 87.1773 93.5262 88.0302 94.2951 88.779C95.0641 89.5278 95.983 90.1727 97.0145 90.8591C98.0272 91.5455 99.1525 92.2944 100.278 92.9184C101.422 93.5425 102.585 94.0833 103.541 94.6033C104.497 95.1233 105.229 95.6642 105.904 96.1842C106.579 96.7042 107.179 97.2034 107.761 97.7859C108.323 98.3683 108.867 99.0547 109.224 99.9284C109.599 100.802 109.805 101.842 109.805 102.82C109.805 103.777 109.599 104.629 109.242 105.378C108.886 106.127 108.38 106.772 107.629 107.417C106.879 108.062 105.867 108.706 104.779 109.434C103.691 110.163 102.528 110.995 101.365 111.951C100.221 112.908 99.0775 113.99 98.1773 114.988C97.2771 115.987 96.6207 116.902 96.1143 117.984C95.6079 119.065 95.2703 120.334 95.1953 121.77C95.1203 123.205 95.3079 124.827 95.7767 126.138C96.2456 127.448 97.0145 128.447 97.7834 129.279C98.5523 130.111 99.3213 130.797 100.128 131.421C100.934 132.045 101.778 132.628 102.603 133.21C103.428 133.793 104.216 134.333 104.91 134.978C105.604 135.602 106.185 136.31 106.579 136.975C106.973 137.641 107.179 138.244 107.236 138.847C107.292 139.43 107.179 139.991 106.767 140.678C106.335 141.364 105.604 142.196 104.685 142.924C103.766 143.652 102.678 144.297 101.797 145.025C100.915 145.753 100.221 146.544 99.6026 147.459C98.9837 148.374 98.4211 149.393 98.2335 150.413C98.0272 151.432 98.196 152.472 98.4773 153.429C98.7586 154.386 99.1525 155.259 99.5838 155.842C100.015 156.424 100.503 156.715 100.728 156.861C100.972 157.007 100.972 157.007 100.803 156.383C100.634 155.759 100.278 154.49 100.278 153.304C100.278 152.118 100.615 151.037 101.14 150.08C101.666 149.102 102.341 148.249 103.203 147.605C104.066 146.96 105.098 146.481 106.298 145.732C107.498 145.004 108.886 144.006 109.899 142.799C110.911 141.614 111.587 140.22 111.793 138.743C111.999 137.246 111.774 135.623 111.286 134.354C110.799 133.085 110.049 132.128 108.905 131.172C107.761 130.215 106.185 129.258 105.004 128.301C103.822 127.344 103.035 126.408 102.359 125.535C101.703 124.661 101.159 123.87 101.14 122.955C101.122 122.019 101.591 120.979 102.097 120.189C102.603 119.419 103.128 118.92 104.16 118.233C105.173 117.547 106.692 116.715 108.098 115.737C109.505 114.78 110.836 113.678 111.905 112.617C112.974 111.556 113.8 110.537 114.531 109.268C115.262 107.999 115.9 106.502 116.219 104.754C116.538 103.007 116.538 101.01 116.144 99.3252C115.769 97.6611 115 96.309 114.081 95.2065C113.162 94.1041 112.112 93.2512 110.799 92.3984C109.486 91.5247 107.929 90.6511 106.317 89.9855C104.704 89.3198 103.035 88.883 101.478 88.1134C99.9214 87.3229 98.4586 86.2205 97.3521 85.3468C96.2456 84.4732 95.5142 83.8283 95.0828 83.3083C94.6702 82.7883 94.5577 82.4139 94.5014 81.8106C94.4452 81.2074 94.4452 80.417 94.4452 79.7929C94.4452 79.1689 94.4452 78.7737 94.4639 78.5657C94.4827 78.3577 94.5389 78.3577 94.6515 78.4825C94.764 78.6073 94.9515 78.8361 95.2328 79.1273C95.5142 79.3977 95.9267 79.7097 96.4519 79.8969C96.977 80.0841 97.6146 80.1257 98.121 80.1049C98.6461 80.0841 99.04 80.0217 99.4713 79.8345C99.9214 79.6473 100.409 79.3561 100.803 78.8569C101.197 78.3785 101.497 77.692 101.797 77.0264Z" fill="white"/>
<path fill-rule="evenodd" clip-rule="evenodd" d="M102.622 55.5389C103.372 110.287 104.141 165.036 104.892 165.015C105.642 164.994 106.392 110.204 107.142 55.4141C105.642 55.4349 104.141 55.4973 102.622 55.5389Z" fill="white"/>
<path fill-rule="evenodd" clip-rule="evenodd" d="M113.444 77.4419C113.294 77.2339 113.143 77.0259 112.937 76.8803C112.731 76.7347 112.487 76.6515 112.262 76.6515C112.037 76.6515 111.812 76.7347 111.681 76.7971L111.493 76.9219C111.474 76.9427 111.474 76.9427 111.812 77.0259C112.131 77.1091 112.787 77.2755 113.444 77.4419ZM108.474 77.1507C108.98 76.7347 109.505 76.2979 110.162 76.0274C110.818 75.757 111.606 75.6322 112.431 75.7154C113.256 75.7986 114.1 76.0482 114.906 76.5059C115.713 76.9635 116.482 77.6083 117.119 78.274C117.757 78.9604 118.263 79.6468 118.545 80.5621C118.845 81.4773 118.92 82.5798 118.788 83.599C118.657 84.6183 118.32 85.5127 117.832 86.4072C117.363 87.2808 116.744 88.1337 115.975 88.8825C115.206 89.6314 114.287 90.2762 113.256 90.9626C112.243 91.6491 111.118 92.3771 109.993 93.0219C108.849 93.646 107.686 94.1868 106.73 94.7068C105.773 95.2269 105.042 95.7677 104.366 96.2877C103.691 96.8077 103.091 97.307 102.51 97.8894C101.947 98.4718 101.403 99.1583 101.047 100.011C100.672 100.885 100.466 101.946 100.466 102.882C100.466 103.839 100.672 104.691 101.028 105.44C101.385 106.189 101.891 106.834 102.641 107.479C103.391 108.124 104.404 108.768 105.492 109.496C106.579 110.224 107.742 111.056 108.905 112.013C110.049 112.97 111.193 114.052 112.093 115.05C112.993 116.049 113.65 116.964 114.156 118.046C114.663 119.127 115 120.396 115.075 121.831C115.15 123.267 114.963 124.889 114.494 126.2C114.025 127.51 113.256 128.509 112.487 129.341C111.718 130.173 110.949 130.859 110.143 131.483C109.336 132.107 108.492 132.71 107.667 133.272C106.842 133.854 106.054 134.395 105.36 135.04C104.667 135.664 104.085 136.371 103.691 137.037C103.297 137.703 103.091 138.306 103.035 138.909C102.979 139.492 103.091 140.053 103.504 140.74C103.935 141.426 104.667 142.258 105.585 142.986C106.504 143.714 107.592 144.359 108.474 145.087C109.355 145.794 110.049 146.606 110.668 147.5C111.287 148.415 111.849 149.435 112.037 150.475C112.243 151.494 112.074 152.534 111.793 153.491C111.512 154.448 111.118 155.321 110.687 155.904C110.255 156.486 109.768 156.777 109.543 156.923C109.299 157.069 109.299 157.069 109.468 156.444C109.636 155.82 109.993 154.552 109.993 153.387C109.993 152.222 109.655 151.119 109.13 150.163C108.605 149.185 107.93 148.332 107.067 147.687C106.204 147.042 105.173 146.564 103.973 145.815C102.772 145.087 101.385 144.089 100.372 142.903C99.3591 141.717 98.6839 140.324 98.4776 138.826C98.2713 137.328 98.4964 135.706 99.0027 134.437C99.4904 133.168 100.241 132.211 101.385 131.254C102.529 130.298 104.104 129.32 105.285 128.384C106.467 127.427 107.255 126.491 107.911 125.617C108.567 124.744 109.093 123.953 109.13 123.038C109.168 122.123 108.68 121.062 108.174 120.271C107.667 119.502 107.142 119.003 106.129 118.316C105.117 117.63 103.598 116.777 102.191 115.82C100.766 114.842 99.4528 113.761 98.3838 112.7C97.3149 111.639 96.4897 110.62 95.7583 109.351C95.0268 108.082 94.3892 106.584 94.0891 104.837C93.7703 103.09 93.7703 101.093 94.1641 99.4079C94.5392 97.7438 95.3082 96.3917 96.2271 95.2893C97.1461 94.1868 98.1963 93.334 99.5091 92.4811C100.822 91.6075 102.379 90.7338 103.991 90.0682C105.604 89.4026 107.273 88.9657 108.83 88.1961C110.387 87.4264 111.849 86.3032 112.956 85.4295C114.044 84.5559 114.794 83.9111 115.225 83.391C115.638 82.871 115.75 82.4966 115.807 81.8934C115.863 81.3109 115.863 80.4997 115.863 79.8756C115.863 79.2724 115.863 78.8356 115.844 78.6484C115.825 78.4404 115.769 78.4404 115.657 78.5652C115.544 78.69 115.375 78.9188 115.075 79.21C114.775 79.4804 114.381 79.7924 113.856 79.9796C113.331 80.1669 112.693 80.2085 112.187 80.1877C111.662 80.1669 111.268 80.1045 110.837 79.9172C110.387 79.73 109.899 79.4388 109.505 78.9396C109.055 78.482 108.774 77.8163 108.474 77.1507Z" fill="white"/>
<path fill-rule="evenodd" clip-rule="evenodd" d="M106.692 63.9425C108.343 63.9425 110.012 63.9633 110.856 63.9425C111.7 63.9217 111.737 63.8593 112.112 63.4433C112.487 63.0272 113.219 62.2368 113.631 61.6544C114.044 61.0719 114.119 60.6767 114.138 60.3855C114.156 60.0943 114.1 59.8863 113.856 59.5535C113.613 59.2206 113.162 58.7214 112.656 58.0142C112.15 57.3069 111.568 56.3917 111.268 55.3724C110.968 54.374 110.968 53.2715 111.268 52.2731C111.568 51.2746 112.15 50.3802 112.806 49.6937C113.463 49.0073 114.213 48.5705 115.057 48.196C115.901 47.8216 116.857 47.5304 117.87 47.4472C118.882 47.3432 119.933 47.468 121.321 48.0504C122.708 48.6329 124.434 49.6729 126.797 51.337C129.179 53.0011 132.217 55.2892 135.405 57.4941C138.593 59.6991 141.931 61.8208 144.032 63.048C146.132 64.2753 146.976 64.6289 147.408 64.8161C147.839 65.0033 147.839 65.0241 147.445 65.1905C147.051 65.357 146.282 65.6898 145.42 65.877C144.557 66.0642 143.601 66.1058 142.644 65.981C141.688 65.8562 140.712 65.5858 139.512 65.0033C138.331 64.4209 136.905 63.5057 135.067 62.2576C133.23 60.9887 130.979 59.3662 129.554 58.2846C128.147 57.2029 127.566 56.6829 127.228 56.3293C126.891 55.9965 126.759 55.8301 126.609 55.6428C126.459 55.4348 126.29 55.206 126.103 54.998C125.934 54.79 125.747 54.582 125.653 54.5196L125.559 54.6652C125.559 54.79 125.54 54.9356 125.522 55.1644C125.522 55.3932 125.522 55.6844 125.522 55.8509C125.522 56.0173 125.522 56.0589 126.028 56.5581C126.534 57.0573 127.547 58.0558 128.616 59.0542C129.685 60.0527 130.81 61.0719 132.104 62.0912C133.398 63.0896 134.861 64.1089 136.268 64.7745C137.656 65.461 138.987 65.8354 139.812 66.085C140.637 66.3346 140.975 66.4802 141.144 66.5426C141.313 66.605 141.313 66.605 141.106 66.8338C140.9 67.0418 140.469 67.4787 139.925 67.7283C139.381 67.9779 138.725 68.0611 137.974 68.1027C137.224 68.1443 136.38 68.1651 135.649 67.9987C134.917 67.8323 134.299 67.4787 133.23 66.7714C132.161 66.0642 130.641 64.9825 129.329 63.9841C128.016 62.9856 126.891 62.0912 126.122 61.4464C125.353 60.8015 124.903 60.4063 124.659 60.2191C124.415 60.0319 124.377 60.0319 124.265 60.1775L123.852 60.8015C123.759 60.9679 123.759 60.9679 124.096 61.2799C124.434 61.6128 125.109 62.2784 126.103 63.0896C127.097 63.9009 128.428 64.8577 129.554 65.6482C130.679 66.4386 131.617 67.0418 132.386 67.5203C133.154 67.9987 133.755 68.3523 134.148 68.5811C134.542 68.8099 134.711 68.9347 134.805 68.9971V69.2052C134.711 69.3508 134.542 69.6212 134.186 69.7668C133.83 69.9124 133.305 69.954 132.798 70.0164C132.292 70.0788 131.823 70.162 131.298 70.0788C130.773 69.9956 130.21 69.7668 129.61 69.4964C129.01 69.226 128.353 68.9347 127.359 68.1859C126.365 67.4371 125.053 66.2514 124.002 65.2945C122.952 64.3377 122.202 63.6097 121.827 63.256C121.452 62.9024 121.452 62.9024 121.321 62.9856L120.795 63.3392C120.664 63.4433 120.664 63.4641 121.189 64.0049C121.714 64.5457 122.746 65.6066 123.59 66.397C124.434 67.2083 125.071 67.7491 125.747 68.2483C126.44 68.7475 127.172 69.1636 127.66 69.4548C128.128 69.746 128.353 69.8708 128.466 70.058L128.653 70.4948C128.691 70.5364 128.728 70.4324 128.503 70.5156C128.278 70.5988 127.772 70.89 127.209 71.0565C126.628 71.2021 125.99 71.2021 125.334 71.1189C124.696 71.0357 124.059 70.8484 123.402 70.4116C122.746 69.9748 122.071 69.2676 121.414 68.5603C120.758 67.8531 120.12 67.125 119.595 66.4802C119.07 65.8354 118.676 65.2738 118.395 64.8785C118.114 64.4833 117.982 64.2753 117.907 64.1713L117.738 64.0673L117.345 64.1921L117.326 64.5665L117.607 64.8993C117.682 65.0449 117.701 65.2529 117.626 65.7106C117.551 66.1682 117.401 66.8546 116.988 67.5619C116.576 68.2899 115.901 69.0596 115.057 69.746C114.213 70.4324 113.219 71.0357 112.056 71.3061C110.893 71.5765 109.599 71.4933 108.643 71.4309C107.705 71.3685 107.105 71.3061 106.523 71.2437C106.58 68.7891 106.636 66.3762 106.692 63.9425Z" fill="white"/>
</svg>
