<svg width="20" height="21" viewBox="0 0 20 21" fill="none" xmlns="http://www.w3.org/2000/svg">
<path d="M10.9677 0.3125C10.6114 0.3125 10.3226 0.601349 10.3226 0.957661C10.3226 1.31397 10.6114 1.60282 10.9677 1.60282C15.2435 1.60282 18.7097 5.06901 18.7097 9.34476C18.7097 9.70107 18.9985 9.98992 19.3548 9.98992C19.7112 9.98992 20 9.70107 20 9.34476C20 4.35638 15.9561 0.3125 10.9677 0.3125Z" fill="white"/>
<path d="M2.70912 2.41731C3.07483 2.22934 3.71892 2.13407 4.0881 2.47801C4.54956 2.90793 5.26077 3.66157 5.74938 4.31911C6.238 4.97665 6.92205 5.97813 7.01978 6.20069C7.1175 6.42324 7.22608 7.21229 6.73747 7.68774C6.34658 8.0681 5.83625 8.40597 5.62994 8.52736C5.43812 8.69596 5.12396 9.19097 5.40192 9.82221C5.74938 10.6113 6.49859 12.159 7.7907 13.3122C9.08281 14.4655 10.4509 15.0724 11.3087 15.2646C11.3633 15.2646 11.4333 15.2776 11.5145 15.2927C11.8052 15.3468 12.2383 15.4273 12.6117 15.0319C12.9939 14.6273 13.3428 14.2024 13.4695 14.0406C13.6685 13.8248 14.2469 13.4579 14.9679 13.7169C15.8691 14.0406 16.9006 14.7487 17.3675 15.0825C17.741 15.3496 18.5728 15.9829 18.9419 16.2661C19.1663 16.4381 19.5413 16.9499 19.246 17.6216C18.8768 18.4613 17.3024 20.3125 15.8908 20.3125C15.3697 20.3125 10.3315 18.8861 5.87968 14.86C3.03602 12.2882 0.588175 7.82599 0.168329 6.32208C0.00907717 5.96465 -0.17913 5.08388 0.342058 4.42027C0.863246 3.75666 1.4496 3.06473 2.70912 2.41731Z" fill="white"/>
<path d="M10.9677 5.47379C10.6114 5.47379 10.3226 5.76264 10.3226 6.11895C10.3226 6.47526 10.6114 6.76411 10.9677 6.76411C12.393 6.76411 13.5484 7.91951 13.5484 9.34476C13.5484 9.70107 13.8372 9.98992 14.1935 9.98992C14.5499 9.98992 14.8387 9.70107 14.8387 9.34476C14.8387 7.20688 13.1056 5.47379 10.9677 5.47379Z" fill="white"/>
<path d="M10.3226 3.53831C10.3226 3.18199 10.6114 2.89315 10.9677 2.89315C14.5309 2.89315 17.4194 5.78163 17.4194 9.34476C17.4194 9.70107 17.1305 9.98992 16.7742 9.98992C16.4179 9.98992 16.129 9.70107 16.129 9.34476C16.129 6.49426 13.8182 4.18347 10.9677 4.18347C10.6114 4.18347 10.3226 3.89462 10.3226 3.53831Z" fill="white"/>
</svg>
