<svg width="30" height="30" viewBox="0 0 30 30" fill="none" xmlns="http://www.w3.org/2000/svg">
<path d="M0.72998 21.59V7.65C0.72998 3.44 4.16998 0 8.37998 0H22.32C26.53 0 29.97 3.44 29.97 7.65V21.59C29.97 25.8 26.53 29.24 22.32 29.24H8.37998C4.16998 29.24 0.72998 25.8 0.72998 21.59Z" fill="url(#paint0_linear_6716_299)"/>
<path d="M7.1818 19V10.6H11.0218C11.7898 10.6 12.4498 10.724 13.0018 10.972C13.5618 11.22 13.9938 11.58 14.2978 12.052C14.6018 12.516 14.7538 13.068 14.7538 13.708C14.7538 14.34 14.6018 14.888 14.2978 15.352C13.9938 15.808 13.5618 16.16 13.0018 16.408C12.4498 16.648 11.7898 16.768 11.0218 16.768H8.5018L9.5578 15.772V19H7.1818ZM12.3778 19L10.2898 15.94H12.8218L14.9218 19H12.3778ZM9.5578 16.024L8.5018 14.932H10.8778C11.3738 14.932 11.7418 14.824 11.9818 14.608C12.2298 14.392 12.3538 14.092 12.3538 13.708C12.3538 13.316 12.2298 13.012 11.9818 12.796C11.7418 12.58 11.3738 12.472 10.8778 12.472H8.5018L9.5578 11.38V16.024ZM19.9406 19.168C18.7006 19.168 17.7326 18.828 17.0366 18.148C16.3406 17.468 15.9926 16.504 15.9926 15.256V10.6H18.3686V15.184C18.3686 15.904 18.5086 16.42 18.7886 16.732C19.0766 17.044 19.4686 17.2 19.9646 17.2C20.4606 17.2 20.8486 17.044 21.1286 16.732C21.4086 16.42 21.5486 15.904 21.5486 15.184V10.6H23.8886V15.256C23.8886 16.504 23.5406 17.468 22.8446 18.148C22.1486 18.828 21.1806 19.168 19.9406 19.168Z" fill="white"/>
<defs>
<linearGradient id="paint0_linear_6716_299" x1="15.35" y1="0" x2="15.35" y2="29.24" gradientUnits="userSpaceOnUse">
<stop stop-color="white"/>
<stop offset="1" stop-color="white" stop-opacity="0"/>
</linearGradient>
</defs>
</svg>
