<svg width="30" height="30" viewBox="0 0 30 30" fill="none" xmlns="http://www.w3.org/2000/svg">
<path d="M0 21.59V7.65C0 3.44 3.44 0 7.65 0H21.59C25.8 0 29.24 3.44 29.24 7.65V21.59C29.24 25.8 25.8 29.24 21.59 29.24H7.65C3.44 29.24 0 25.8 0 21.59Z" fill="url(#paint0_linear_6716_291)"/>
<path d="M9.94014 15.8701L5.84014 14.5301C5.84014 14.5301 5.35014 14.3301 5.51014 13.8801C5.54014 13.7901 5.61014 13.7101 5.80014 13.5701C6.71014 12.9401 22.6101 7.22012 22.6101 7.22012C22.6101 7.22012 23.0601 7.07012 23.3201 7.17012C23.4401 7.22012 23.5201 7.27012 23.5801 7.46012C23.6001 7.53012 23.6201 7.68012 23.6201 7.82012C23.6201 7.93012 23.6101 8.02012 23.6001 8.18012C23.5001 9.74012 20.6001 21.4001 20.6001 21.4001C20.6001 21.4001 20.4301 22.0801 19.8101 22.1101C19.5801 22.1201 19.3101 22.0701 18.9801 21.7901C17.7601 20.7401 13.5501 17.9101 12.6201 17.2901C12.5701 17.2501 12.5501 17.2101 12.5401 17.1601C12.5301 17.0901 12.6001 17.0101 12.6001 17.0101C12.6001 17.0101 19.9401 10.4901 20.1301 9.80012C20.1501 9.75012 20.0901 9.72012 20.0101 9.74012C19.5201 9.92012 11.0801 15.2501 10.1401 15.8401C10.0901 15.8901 9.94014 15.8701 9.94014 15.8701Z" fill="white"/>
<defs>
<linearGradient id="paint0_linear_6716_291" x1="14.62" y1="0" x2="14.62" y2="29.24" gradientUnits="userSpaceOnUse">
<stop stop-color="white"/>
<stop offset="1" stop-color="white" stop-opacity="0"/>
</linearGradient>
</defs>
</svg>
