<svg width="20" height="22" viewBox="0 0 20 22" fill="none" xmlns="http://www.w3.org/2000/svg">
<path d="M10 0.157104C4.57146 0.157104 0.142883 5.02853 0.142883 11C0.142883 16.9714 4.57146 21.8428 10 21.8428C15.4286 21.8428 19.8572 16.9714 19.8572 11C19.8572 5.02853 15.4286 0.157104 10 0.157104ZM10 1.88568C12.1429 1.88568 14 2.82853 15.4286 4.08568C15.2857 4.39996 15 4.5571 14.7143 5.02853C14 5.81425 12.8572 6.7571 11.1429 7.38568C10 5.02853 8.85717 3.29996 8.14288 2.19996C8.71431 2.04282 9.4286 1.88568 10 1.88568ZM6.57146 2.82853C7.14288 3.77139 8.4286 5.49996 9.57146 8.01425C6.28574 8.9571 3.14288 9.11425 2.00003 9.11425C2.4286 6.28568 4.14288 3.92853 6.57146 2.82853ZM16.5715 5.49996C17.5715 6.91425 18.1429 8.79996 18.2857 10.6857C17.5715 10.5285 16.4286 10.3714 15 10.3714C14.2857 10.3714 13.4286 10.3714 12.5715 10.5285C12.4286 10.0571 12.1429 9.58568 11.8572 8.9571C13.7143 8.17139 15 7.07139 15.8572 6.28568C16.1429 6.12853 16.4286 5.81425 16.5715 5.49996ZM10.2857 9.58568C10.4286 10.0571 10.7143 10.3714 10.8572 10.8428C7.28574 11.9428 4.85717 15.2428 3.71431 16.8142C2.57145 15.4 1.71431 13.2 1.71431 11C1.71431 11 1.71431 11 1.71431 10.8428C2.85717 10.8428 6.4286 10.8428 10.2857 9.58568ZM15 12.2571C16.4286 12.2571 17.4286 12.4142 18.1429 12.7285C17.7143 15.0857 16.5715 17.2857 14.7143 18.5428C14.4286 16.1857 13.8572 14.1428 13.2857 12.2571C13.8572 12.2571 14.4286 12.2571 15 12.2571ZM11.5715 12.5714C12.2857 14.6142 13 16.9714 13.2857 19.3285C12.2857 19.8 11.1429 20.1142 10 20.1142C8.14288 20.1142 6.4286 19.4857 5.00003 18.2285C5.85717 16.9714 8.28574 13.5142 11.5715 12.5714Z" fill="white"/>
</svg>
