<svg width="30" height="30" viewBox="0 0 30 30" fill="none" xmlns="http://www.w3.org/2000/svg">
<path d="M0.72998 21.59V7.65C0.72998 3.44 4.16998 0 8.37998 0H22.32C26.53 0 29.97 3.44 29.97 7.65V21.59C29.97 25.8 26.53 29.24 22.32 29.24H8.37998C4.16998 29.24 0.72998 25.8 0.72998 21.59Z" fill="url(#paint0_linear_6716_269)"/>
<path d="M23.1799 12.5002C23.1799 10.5602 21.6099 8.99023 19.6699 8.99023H10.6899C8.74993 8.99023 7.17993 10.5602 7.17993 12.5002V16.6802C7.17993 18.6202 8.74993 20.1902 10.6899 20.1902H19.6699C21.6099 20.1902 23.1799 18.6202 23.1799 16.6802V12.5002ZM17.8999 14.9002L13.8699 16.8902C13.7099 16.9802 13.1799 16.8602 13.1799 16.6802V12.5902C13.1799 12.4102 13.7199 12.2902 13.8799 12.3802L17.7299 14.4802C17.8899 14.5802 18.0599 14.8102 17.8999 14.9002Z" fill="white"/>
<defs>
<linearGradient id="paint0_linear_6716_269" x1="15.35" y1="0" x2="15.35" y2="29.24" gradientUnits="userSpaceOnUse">
<stop stop-color="white"/>
<stop offset="1" stop-color="white" stop-opacity="0"/>
</linearGradient>
</defs>
</svg>
